<svg id="visual" viewBox="0 0 1920 1080" width="1920" height="1080" xmlns="http://www.w3.org/2000/svg" xmlns:xlink="http://www.w3.org/1999/xlink" version="1.1"><rect x="0" y="0" width="1920" height="1080" fill="#e6cdb9"></rect><defs><linearGradient id="grad1_0" x1="43.8%" y1="100%" x2="100%" y2="0%"><stop offset="14.444444444444446%" stop-color="#639a96" stop-opacity="1"></stop><stop offset="85.55555555555554%" stop-color="#639a96" stop-opacity="1"></stop></linearGradient></defs><defs><linearGradient id="grad1_1" x1="43.8%" y1="100%" x2="100%" y2="0%"><stop offset="14.444444444444446%" stop-color="#639a96" stop-opacity="1"></stop><stop offset="85.55555555555554%" stop-color="#83a994" stop-opacity="1"></stop></linearGradient></defs><defs><linearGradient id="grad1_2" x1="43.8%" y1="100%" x2="100%" y2="0%"><stop offset="14.444444444444446%" stop-color="#a6b598" stop-opacity="1"></stop><stop offset="85.55555555555554%" stop-color="#83a994" stop-opacity="1"></stop></linearGradient></defs><defs><linearGradient id="grad1_3" x1="43.8%" y1="100%" x2="100%" y2="0%"><stop offset="14.444444444444446%" stop-color="#a6b598" stop-opacity="1"></stop><stop offset="85.55555555555554%" stop-color="#c8c1a4" stop-opacity="1"></stop></linearGradient></defs><defs><linearGradient id="grad1_4" x1="43.8%" y1="100%" x2="100%" y2="0%"><stop offset="14.444444444444446%" stop-color="#e6cdb9" stop-opacity="1"></stop><stop offset="85.55555555555554%" stop-color="#c8c1a4" stop-opacity="1"></stop></linearGradient></defs><defs><linearGradient id="grad2_0" x1="0%" y1="100%" x2="56.3%" y2="0%"><stop offset="14.444444444444446%" stop-color="#639a96" stop-opacity="1"></stop><stop offset="85.55555555555554%" stop-color="#639a96" stop-opacity="1"></stop></linearGradient></defs><defs><linearGradient id="grad2_1" x1="0%" y1="100%" x2="56.3%" y2="0%"><stop offset="14.444444444444446%" stop-color="#83a994" stop-opacity="1"></stop><stop offset="85.55555555555554%" stop-color="#639a96" stop-opacity="1"></stop></linearGradient></defs><defs><linearGradient id="grad2_2" x1="0%" y1="100%" x2="56.3%" y2="0%"><stop offset="14.444444444444446%" stop-color="#83a994" stop-opacity="1"></stop><stop offset="85.55555555555554%" stop-color="#a6b598" stop-opacity="1"></stop></linearGradient></defs><defs><linearGradient id="grad2_3" x1="0%" y1="100%" x2="56.3%" y2="0%"><stop offset="14.444444444444446%" stop-color="#c8c1a4" stop-opacity="1"></stop><stop offset="85.55555555555554%" stop-color="#a6b598" stop-opacity="1"></stop></linearGradient></defs><defs><linearGradient id="grad2_4" x1="0%" y1="100%" x2="56.3%" y2="0%"><stop offset="14.444444444444446%" stop-color="#c8c1a4" stop-opacity="1"></stop><stop offset="85.55555555555554%" stop-color="#e6cdb9" stop-opacity="1"></stop></linearGradient></defs><g transform="translate(1920, 1080)"><path d="M-1020 0C-1032.7 -109.3 -1045.4 -218.6 -1027.1 -333.7C-1008.8 -448.9 -959.5 -570 -866.5 -629.5C-773.4 -689 -636.6 -687 -543.7 -748.3C-450.8 -809.7 -401.9 -934.5 -318.6 -980.5C-235.3 -1026.6 -117.7 -993.8 0 -961L0 0Z" fill="#d8c7ae"></path><path d="M-816 0C-826.2 -87.4 -836.4 -174.8 -821.7 -267C-807.1 -359.1 -767.6 -456 -693.2 -503.6C-618.7 -551.2 -509.3 -549.6 -435 -598.7C-360.7 -647.8 -321.5 -747.6 -254.9 -784.4C-188.2 -821.2 -94.1 -795 0 -768.8L0 0Z" fill="#b8bb9d"></path><path d="M-612 0C-619.6 -65.6 -627.3 -131.1 -616.3 -200.2C-605.3 -269.4 -575.7 -342 -519.9 -377.7C-464 -413.4 -381.9 -412.2 -326.2 -449C-270.5 -485.8 -241.1 -560.7 -191.2 -588.3C-141.2 -615.9 -70.6 -596.3 0 -576.6L0 0Z" fill="#94af95"></path><path d="M-408 0C-413.1 -43.7 -418.2 -87.4 -410.9 -133.5C-403.5 -179.6 -383.8 -228 -346.6 -251.8C-309.4 -275.6 -254.6 -274.8 -217.5 -299.3C-180.3 -323.9 -160.8 -373.8 -127.4 -392.2C-94.1 -410.6 -47.1 -397.5 0 -384.4L0 0Z" fill="#72a295"></path><path d="M-204 0C-206.5 -21.9 -209.1 -43.7 -205.4 -66.7C-201.8 -89.8 -191.9 -114 -173.3 -125.9C-154.7 -137.8 -127.3 -137.4 -108.7 -149.7C-90.2 -161.9 -80.4 -186.9 -63.7 -196.1C-47.1 -205.3 -23.5 -198.8 0 -192.2L0 0Z" fill="#639a96"></path></g><g transform="translate(0, 0)"><path d="M1008 0C1007.3 105.6 1006.7 211.2 990 321.7C973.4 432.1 940.9 547.5 873.7 634.8C806.6 722.2 704.8 781.6 607.8 836.5C510.7 891.5 418.5 942 318 978.6C217.5 1015.3 108.7 1038.2 0 1061L0 0Z" fill="#d8c7ae"></path><path d="M806.4 0C805.9 84.5 805.3 169 792 257.3C778.8 345.7 752.7 438 699 507.8C645.3 577.7 563.8 625.3 486.2 669.2C408.6 713.2 334.8 753.6 254.4 782.9C174 812.2 87 830.5 0 848.8L0 0Z" fill="#b8bb9d"></path><path d="M604.8 0C604.4 63.4 604 126.7 594 193C584.1 259.3 564.5 328.5 524.2 380.9C483.9 433.3 422.9 468.9 364.7 501.9C306.4 534.9 251.1 565.2 190.8 587.2C130.5 609.2 65.2 622.9 0 636.6L0 0Z" fill="#94af95"></path><path d="M403.2 0C402.9 42.2 402.7 84.5 396 128.7C389.4 172.9 376.4 219 349.5 253.9C322.6 288.9 281.9 312.6 243.1 334.6C204.3 356.6 167.4 376.8 127.2 391.5C87 406.1 43.5 415.3 0 424.4L0 0Z" fill="#72a295"></path><path d="M201.6 0C201.5 21.1 201.3 42.2 198 64.3C194.7 86.4 188.2 109.5 174.7 127C161.3 144.4 141 156.3 121.6 167.3C102.1 178.3 83.7 188.4 63.6 195.7C43.5 203.1 21.7 207.6 0 212.2L0 0Z" fill="#639a96"></path></g></svg>